<svg xmlns="http://www.w3.org/2000/svg" viewBox="0 0 320 320"><defs><style>.cls-1{fill:#efe1c1;}.cls-2{fill:#2a873e;}</style></defs><title>Green May copia</title><g id="Capa_2" data-name="Capa 2"><circle class="cls-1" cx="160.36" cy="160.98" r="160"/><path class="cls-2" d="M141.69,214.76c7.74,6.13,13.1,22,14.84,43.82-9.62-19.58-23.09-22.66-32.86-21.67-1,.07-3,.68-2.94,2.46a2.07,2.07,0,0,0,.69,1.51,4,4,0,0,0,2.7.72c.93-.09,1.82-.14,2.7-.14,23.44,0,30.23,32.22,30.3,32.56l.18.44h0a2.22,2.22,0,0,0,2.18,1.54,2.18,2.18,0,0,0,1.67-.67,3,3,0,0,0,.65-2.12c0-11.38-1.24-49.5-17.21-62.14-53.3-42.2-30.37-79.47-8.19-115.51,8.18-13.29,15.9-25.85,19.65-38.35h0l.12-.48c1.17-4.44,2.91-6.06,3.8-6.06s2.33,1.43,3.47,4.52h0l.13.46c3.55,13,11.62,26.12,20.16,40,2.2,3.57,4.54,7.39,6.84,11.28-1,1.56-1.94,3.15-2.88,4.76-4,7-9.24,16.92-16.17,30.22-4.74,9.08-9.44,18-14,26.43-3.84,7.17-7.09,13-9.7,17.31.92-4,2.24-9.05,3.92-15.08,2.1-7.49,4.23-15,6.34-22.21,2.87-9.8,5.12-17.74,6.7-23.61,1.62-6,2.41-9.69,2.41-11.2,0-.5,0-1.15-.08-2a6.57,6.57,0,0,0-.66-2.44,3,3,0,0,0-2-1.67c-1.86-.63-4.1.79-6.87,4.29a123,123,0,0,0-9.3,14.45c-5.19,9.49-15.87,29.89-23,46.17l-.62,1.42c-.76,1.92-.13,4,1.39,4.58,1.9.75,3-.79,4.49-4.12l.55-1.29c.37-.87.75-1.79,1.14-2.73,2.73-6.54,5.86-13.72,9.3-21.35s6.9-14.52,10.33-20.58c2.57-4.35,4.7-7.76,6.32-10.13a52.57,52.57,0,0,1,3.69-5c.48-.54.83-.9,1.08-1.14,0,.33,0,.79,0,1.47,0,1.24-.92,5.2-2.74,11.77s-3.81,13.62-6.17,21.87c-3.29,11.12-6.16,21.34-8.53,30.39-1.24,4.59-2.12,8.18-2.6,10.65-.88,3.79-.62,6,.81,6.79a4.88,4.88,0,0,0,.59.23,1.91,1.91,0,0,0,1.2,0,3.92,3.92,0,0,0,1.38-.87c1.83-2,5.13-7.34,10.1-16.37,4.85-8.82,11-20.28,18.16-34.08,6.78-13,12.21-23.16,16.15-30.12a118.22,118.22,0,0,1,11.48-16.9,39.4,39.4,0,0,1,4.76-5,12.43,12.43,0,0,1,1.6-1.12,6,6,0,0,1,0,.67c0,2.31-1.31,7.35-3.91,15s-5.57,16-8.89,25.12c-6,16.23-10.79,30.31-14.14,41.87A260.5,260.5,0,0,0,176.52,201c-1.35,10-1.29,10.4-1.26,10.54a2.19,2.19,0,0,0,.57,1.54,1.85,1.85,0,0,0,1.11.6l1.12,1.44.38-.3c44.83-35,37.41-67.76,25.85-92.43,2.11-6,3.86-11,5.36-15.46,2.58-7.64,3.84-12.69,3.84-15.42a5.76,5.76,0,0,0-.88-3.63,3.27,3.27,0,0,0-1.88-1.3,4,4,0,0,0-2.23.08,10.64,10.64,0,0,0-3.42,2A37.1,37.1,0,0,0,200,93.83c-2.05,2.47-4.23,5.4-6.48,8.72-2-3.27-3.87-6.43-5.69-9.38C180,80.46,172.57,68.45,168.88,56.83l.05,0-.12-.45C167.14,49.77,164,46,160.05,46c-3.35,0-6.2,2.9-7.88,8h-.06l-.13.45c-3.36,12.38-11.23,25.18-19.56,38.72C110.24,129.12,85.11,170,141.69,214.76Zm38.23-7.27c.19-1.53.44-3.47.76-5.85a248.3,248.3,0,0,1,5.75-27.13c3.28-11.37,8-25.32,14-41.47l1.52-4.26C210.88,149.63,215.83,177.16,179.92,207.49Z"/></g></svg>