<svg xmlns="http://www.w3.org/2000/svg" viewBox="0 0 320 320"><defs><style>.cls-1{fill:#f4a6a2;}.cls-2{fill:#efe1c1;}</style></defs><title>Green May copia</title><g id="Capa_2" data-name="Capa 2"><circle class="cls-1" cx="160.09" cy="160.33" r="160"/><path class="cls-2" d="M141.43,214.12c7.73,6.12,13.09,22,14.83,43.81-9.62-19.58-23.08-22.66-32.86-21.67-1,.07-3,.68-2.93,2.46a2,2,0,0,0,.68,1.51,4,4,0,0,0,2.71.72c.92-.09,1.82-.13,2.69-.13,23.44,0,30.24,32.21,30.31,32.55l.17.44h0a2.19,2.19,0,0,0,2.17,1.54,2.15,2.15,0,0,0,1.67-.67,3.12,3.12,0,0,0,.66-2.12c0-11.38-1.24-49.5-17.22-62.14C91.06,168.23,114,131,136.17,94.91c8.17-13.29,15.9-25.84,19.65-38.35l0,0,.13-.49c1.16-4.44,2.9-6.06,3.79-6.06s2.33,1.43,3.48,4.52h0l.13.46c3.56,13,11.62,26.12,20.16,40,2.2,3.58,4.54,7.39,6.85,11.28-1,1.56-2,3.15-2.89,4.76-3.95,7-9.24,16.92-16.16,30.22-4.74,9.09-9.44,18-14,26.43-3.84,7.17-7.09,13-9.7,17.31.93-4,2.24-9.05,3.93-15.08,2.09-7.49,4.22-15,6.33-22.21,2.87-9.79,5.12-17.74,6.71-23.6,1.61-6,2.4-9.7,2.4-11.21,0-.5,0-1.14-.08-2a6.57,6.57,0,0,0-.66-2.44,3,3,0,0,0-2-1.67c-1.85-.63-4.1.79-6.86,4.29a122.55,122.55,0,0,0-9.3,14.45c-5.19,9.49-15.88,29.89-23,46.17l-.62,1.42c-.75,1.93-.13,4,1.39,4.58,1.9.75,3-.79,4.5-4.12l.54-1.29,1.15-2.73c2.72-6.54,5.85-13.72,9.29-21.35s6.9-14.52,10.33-20.58c2.57-4.35,4.7-7.75,6.32-10.13a54.41,54.41,0,0,1,3.69-5c.48-.54.83-.9,1.08-1.14,0,.33,0,.79,0,1.47,0,1.24-.93,5.2-2.75,11.77s-3.81,13.62-6.17,21.87c-3.29,11.12-6.16,21.35-8.53,30.39-1.24,4.59-2.12,8.18-2.6,10.65-.88,3.8-.61,6,.81,6.79a4.55,4.55,0,0,0,.6.23,1.88,1.88,0,0,0,1.19,0,3.88,3.88,0,0,0,1.39-.87c1.82-2,5.12-7.34,10.09-16.37,4.85-8.82,11-20.28,18.16-34.08,6.78-13,12.21-23.16,16.15-30.11a119.46,119.46,0,0,1,11.48-16.91,37.69,37.69,0,0,1,4.77-5A12,12,0,0,1,209,90.14a5.47,5.47,0,0,1,0,.67c0,2.31-1.32,7.35-3.92,15s-5.56,16-8.89,25.12c-6,16.23-10.79,30.31-14.14,41.87a261,261,0,0,0-5.82,27.51c-1.35,10-1.29,10.41-1.26,10.54a2.19,2.19,0,0,0,.57,1.54,1.85,1.85,0,0,0,1.11.6l1.12,1.44.38-.29c44.83-35,37.41-67.77,25.85-92.44,2.11-6,3.86-11,5.36-15.46,2.59-7.64,3.84-12.69,3.84-15.42a5.85,5.85,0,0,0-.87-3.63,3.22,3.22,0,0,0-1.89-1.29,3.86,3.86,0,0,0-2.22.07,10.75,10.75,0,0,0-3.43,2,37.13,37.13,0,0,0-5.1,5.23c-2.06,2.47-4.23,5.4-6.48,8.73-2-3.28-3.88-6.44-5.7-9.38C179.7,79.81,172.3,67.8,168.61,56.18h0l-.11-.45c-1.68-6.6-4.86-10.39-8.77-10.41-3.35,0-6.2,2.9-7.88,8l-.06,0-.12.45c-3.36,12.38-11.24,25.18-19.57,38.73C110,128.47,84.84,169.32,141.43,214.12Zm38.22-7.28.76-5.85a248.3,248.3,0,0,1,5.75-27.13c3.29-11.37,8-25.32,14-41.47l1.53-4.26C210.61,149,215.56,176.51,179.65,206.84Z"/></g></svg>