<svg xmlns="http://www.w3.org/2000/svg" viewBox="0 0 320 320"><defs><style>.cls-1{fill:#efe1c1;}.cls-2{fill:#eb5e74;}</style></defs><title>Green May copia</title><g id="Capa_2" data-name="Capa 2"><circle class="cls-1" cx="161.08" cy="159.89" r="160"/><path class="cls-2" d="M142.42,213.67c7.73,6.12,13.09,22,14.83,43.82-9.62-19.59-23.08-22.66-32.86-21.68-1,.07-3,.68-2.93,2.47a2,2,0,0,0,.68,1.5,4,4,0,0,0,2.71.73c.92-.09,1.82-.14,2.69-.14,23.44,0,30.24,32.22,30.31,32.55l.17.45h0a2.19,2.19,0,0,0,2.17,1.54,2.15,2.15,0,0,0,1.67-.67,3.1,3.1,0,0,0,.66-2.11c0-11.39-1.24-49.51-17.22-62.15C92.05,167.78,115,130.51,137.15,94.46c8.18-13.28,15.9-25.84,19.65-38.34h0l.13-.49c1.16-4.44,2.9-6,3.79-6s2.33,1.42,3.47,4.52h0l.13.46c3.56,13,11.62,26.11,20.16,40,2.2,3.58,4.54,7.39,6.85,11.28-1,1.56-1.95,3.16-2.89,4.76-4,7-9.24,16.93-16.16,30.23-4.74,9.08-9.44,18-14,26.43-3.84,7.16-7.09,13-9.7,17.31.93-4,2.24-9.05,3.93-15.09,2.09-7.49,4.22-15,6.33-22.2,2.87-9.8,5.12-17.74,6.7-23.61,1.62-6,2.41-9.7,2.41-11.21,0-.49,0-1.14-.08-1.94a6.62,6.62,0,0,0-.66-2.45,3,3,0,0,0-2-1.67c-1.85-.62-4.1.79-6.86,4.3a121.39,121.39,0,0,0-9.3,14.44c-5.19,9.49-15.88,29.89-23,46.17l-.62,1.42c-.75,1.93-.13,4,1.39,4.58,1.9.75,3-.78,4.5-4.12l.54-1.29q.56-1.3,1.14-2.73c2.73-6.53,5.86-13.71,9.3-21.35s6.9-14.52,10.33-20.58c2.57-4.34,4.7-7.75,6.32-10.12a56.44,56.44,0,0,1,3.69-5c.48-.54.83-.89,1.08-1.13,0,.32,0,.79,0,1.46,0,1.24-.92,5.2-2.74,11.77s-3.81,13.63-6.17,21.88c-3.29,11.12-6.16,21.34-8.53,30.38-1.24,4.6-2.12,8.19-2.6,10.66-.88,3.79-.61,6,.81,6.79a4.55,4.55,0,0,0,.6.23,1.88,1.88,0,0,0,1.19,0,4,4,0,0,0,1.39-.86c1.82-2,5.12-7.35,10.09-16.38,4.85-8.81,11-20.28,18.16-34.08,6.78-13,12.21-23.15,16.15-30.11a117.91,117.91,0,0,1,11.48-16.9,38.6,38.6,0,0,1,4.77-5A13.53,13.53,0,0,1,210,89.69a5.47,5.47,0,0,1,0,.67c0,2.31-1.32,7.36-3.92,15s-5.56,16-8.89,25.13c-6,16.22-10.79,30.31-14.14,41.87a260.94,260.94,0,0,0-5.82,27.5c-1.35,10-1.29,10.41-1.26,10.54a2.16,2.16,0,0,0,.57,1.54,1.87,1.87,0,0,0,1.11.61l1.12,1.43.38-.29c44.83-35,37.41-67.77,25.85-92.44,2.11-6,3.86-11,5.36-15.46,2.59-7.64,3.84-12.68,3.84-15.42a5.87,5.87,0,0,0-.87-3.63,3.3,3.3,0,0,0-1.89-1.29,4,4,0,0,0-2.22.07,10.63,10.63,0,0,0-3.43,2,38.05,38.05,0,0,0-5.11,5.22c-2.05,2.47-4.23,5.41-6.47,8.73-2-3.28-3.88-6.43-5.7-9.38-7.83-12.71-15.23-24.73-18.92-36.35h.05l-.11-.45c-1.68-6.6-4.86-10.39-8.77-10.4-3.35,0-6.2,2.89-7.88,8h-.06l-.12.45C149.35,65.65,141.47,78.44,133.14,92,111,128,85.83,168.88,142.42,213.67Zm38.22-7.27c.19-1.53.45-3.47.76-5.85a248.38,248.38,0,0,1,5.75-27.14c3.28-11.36,8-25.31,14-41.47l1.53-4.25C211.6,148.53,216.55,176.07,180.64,206.4Z"/></g></svg>