<svg xmlns="http://www.w3.org/2000/svg" viewBox="0 0 320 320"><defs><style>.cls-1{fill:#2a873e;}.cls-2{fill:#efe1c1;}</style></defs><title>Green May copia</title><g id="Capa_2" data-name="Capa 2"><circle class="cls-1" cx="161.15" cy="160.63" r="160"/><path class="cls-2" d="M142.48,214.42c7.73,6.12,13.09,22,14.83,43.82-9.62-19.59-23.08-22.66-32.86-21.68-1,.07-3,.68-2.93,2.46a2,2,0,0,0,.68,1.51,4,4,0,0,0,2.71.73,24.93,24.93,0,0,1,2.7-.14c23.44,0,30.23,32.21,30.3,32.55l.17.45h0a2.19,2.19,0,0,0,2.17,1.54A2.15,2.15,0,0,0,162,275a3.11,3.11,0,0,0,.66-2.12c0-11.38-1.24-49.5-17.22-62.14C92.11,168.53,115,131.26,137.22,95.21c8.17-13.29,15.9-25.84,19.65-38.34h0l.13-.49c1.16-4.44,2.91-6,3.79-6s2.33,1.42,3.48,4.52h0l.12.46c3.56,13,11.63,26.12,20.17,40,2.2,3.58,4.54,7.39,6.84,11.28-1,1.56-1.94,3.16-2.89,4.76-4,7-9.24,16.93-16.16,30.23-4.74,9.08-9.44,18-14,26.43-3.84,7.16-7.09,13-9.69,17.3.92-4,2.23-9.05,3.92-15.08,2.09-7.49,4.22-15,6.33-22.21,2.87-9.79,5.13-17.73,6.71-23.6,1.62-6,2.41-9.7,2.41-11.21,0-.49,0-1.14-.08-1.94a7,7,0,0,0-.66-2.45,3.07,3.07,0,0,0-2-1.67c-1.85-.62-4.1.79-6.86,4.3a122.69,122.69,0,0,0-9.3,14.44c-5.19,9.49-15.88,29.89-23,46.17l-.61,1.42c-.76,1.93-.14,4,1.39,4.58,1.89.75,3-.79,4.49-4.12l.54-1.29,1.15-2.73c2.73-6.53,5.85-13.72,9.29-21.35S149.3,134,152.73,128c2.58-4.35,4.7-7.75,6.32-10.12a54.08,54.08,0,0,1,3.7-5c.47-.54.82-.9,1.07-1.14,0,.33,0,.8,0,1.47,0,1.24-.93,5.2-2.74,11.77s-3.82,13.63-6.18,21.88c-3.29,11.11-6.16,21.34-8.53,30.38-1.24,4.6-2.12,8.19-2.6,10.66-.87,3.79-.61,6,.82,6.79a4.88,4.88,0,0,0,.59.23,2,2,0,0,0,1.19,0,4,4,0,0,0,1.39-.86c1.83-2,5.13-7.35,10.09-16.38,4.85-8.81,11-20.28,18.16-34.08,6.78-13,12.22-23.15,16.15-30.11a117.9,117.9,0,0,1,11.49-16.9,38.7,38.7,0,0,1,4.76-5,11.86,11.86,0,0,1,1.6-1.13c0,.15,0,.37,0,.67,0,2.31-1.32,7.35-3.92,15s-5.56,16-8.88,25.12c-6,16.23-10.8,30.31-14.15,41.88a265.66,265.66,0,0,0-5.82,27.5C176,210.58,176,211,176,211.14a2.19,2.19,0,0,0,.57,1.54,1.87,1.87,0,0,0,1.11.61l1.13,1.43.38-.29c44.82-35,37.4-67.77,25.84-92.44,2.11-6,3.87-11,5.36-15.46,2.59-7.64,3.85-12.68,3.85-15.42a5.87,5.87,0,0,0-.88-3.63,3.22,3.22,0,0,0-1.89-1.29,4,4,0,0,0-2.22.07,10.5,10.5,0,0,0-3.42,2,36.92,36.92,0,0,0-5.11,5.22c-2.06,2.47-4.23,5.4-6.48,8.73-2-3.28-3.88-6.43-5.7-9.38-7.82-12.71-15.22-24.73-18.91-36.35h0L169.6,56c-1.68-6.6-4.86-10.39-8.77-10.4-3.34,0-6.2,2.89-7.88,8l-.06,0-.12.46c-3.36,12.38-11.23,25.17-19.57,38.72C111,128.78,85.89,169.62,142.48,214.42Zm38.22-7.28q.3-2.28.76-5.84a248.38,248.38,0,0,1,5.75-27.14c3.29-11.36,8-25.31,14-41.47l1.53-4.26C211.67,149.28,216.62,176.82,180.7,207.14Z"/></g></svg>