<svg xmlns="http://www.w3.org/2000/svg" viewBox="0 0 320 320"><defs><style>.cls-1{fill:#124737;}.cls-2{fill:#f4a6a2;}</style></defs><title>Green May copia</title><g id="Capa_2" data-name="Capa 2"><circle class="cls-1" cx="160.45" cy="159.7" r="160"/><path class="cls-2" d="M141.79,213.48c7.73,6.13,13.09,22,14.83,43.82-9.62-19.58-23.08-22.66-32.86-21.67-1,.07-3,.68-2.93,2.46a2,2,0,0,0,.68,1.51,4,4,0,0,0,2.71.72c.92-.09,1.82-.14,2.69-.14,23.44,0,30.24,32.22,30.31,32.56l.17.44h0a2.34,2.34,0,0,0,3.84.87,3.13,3.13,0,0,0,.66-2.12c0-11.38-1.24-49.5-17.22-62.14-53.29-42.2-30.36-79.47-8.19-115.51,8.18-13.29,15.9-25.85,19.65-38.35h.05l.13-.48c1.16-4.45,2.9-6.06,3.79-6.06s2.33,1.43,3.47,4.52h0l.13.46c3.56,13,11.62,26.12,20.16,40,2.2,3.57,4.54,7.39,6.85,11.28-1,1.56-1.95,3.15-2.89,4.76-4,7-9.24,16.92-16.16,30.22-4.74,9.08-9.44,18-14,26.43-3.84,7.17-7.09,13-9.7,17.31.93-4,2.24-9.05,3.93-15.09,2.09-7.48,4.22-14.95,6.33-22.2,2.87-9.8,5.12-17.74,6.7-23.61,1.62-6,2.41-9.69,2.41-11.2,0-.5,0-1.15-.08-2a6.57,6.57,0,0,0-.66-2.44,3,3,0,0,0-2-1.67c-1.85-.63-4.1.79-6.86,4.29a121.7,121.7,0,0,0-9.3,14.45c-5.19,9.49-15.88,29.89-23,46.17l-.62,1.42c-.75,1.92-.13,4,1.39,4.58,1.9.75,3-.79,4.5-4.12l.54-1.29c.37-.87.75-1.79,1.14-2.73,2.73-6.54,5.86-13.72,9.3-21.35s6.9-14.52,10.33-20.58c2.57-4.35,4.7-7.76,6.32-10.13a54.41,54.41,0,0,1,3.69-5c.48-.54.83-.9,1.08-1.14,0,.33,0,.79,0,1.47,0,1.24-.92,5.2-2.74,11.77s-3.81,13.62-6.17,21.87c-3.29,11.12-6.16,21.34-8.53,30.39-1.24,4.59-2.12,8.18-2.6,10.65-.88,3.79-.61,6,.81,6.79a4.55,4.55,0,0,0,.6.23,1.88,1.88,0,0,0,1.19,0,4,4,0,0,0,1.39-.87c1.82-2,5.12-7.35,10.09-16.38,4.85-8.81,11-20.27,18.16-34.07,6.78-13,12.21-23.16,16.15-30.12A119.05,119.05,0,0,1,203,95.6a38.6,38.6,0,0,1,4.77-5,13.53,13.53,0,0,1,1.59-1.13,5.77,5.77,0,0,1,0,.68c0,2.31-1.32,7.35-3.92,15s-5.56,16-8.89,25.12c-6,16.23-10.79,30.31-14.14,41.87a260.5,260.5,0,0,0-5.82,27.51c-1.35,10-1.29,10.4-1.26,10.54a2.19,2.19,0,0,0,.57,1.54,1.85,1.85,0,0,0,1.11.6l1.12,1.44.38-.3c44.83-35,37.41-67.76,25.85-92.43,2.11-6,3.86-11,5.36-15.46,2.59-7.64,3.84-12.69,3.84-15.42a5.83,5.83,0,0,0-.87-3.63,3.32,3.32,0,0,0-1.89-1.3,4,4,0,0,0-2.22.08,10.56,10.56,0,0,0-3.43,2,37.66,37.66,0,0,0-5.11,5.23c-2.05,2.47-4.23,5.4-6.47,8.72-2-3.27-3.88-6.43-5.7-9.38C180.06,79.18,172.66,67.17,169,55.55l.05,0-.11-.45c-1.68-6.59-4.86-10.38-8.77-10.4-3.35,0-6.2,2.9-7.88,8h-.06l-.12.45c-3.36,12.38-11.24,25.18-19.57,38.72C110.33,127.84,85.2,168.69,141.79,213.48ZM180,206.21c.19-1.53.45-3.47.76-5.85a248.3,248.3,0,0,1,5.75-27.13c3.28-11.37,8-25.32,14-41.47l1.53-4.26C211,148.35,215.92,175.88,180,206.21Z"/></g></svg>