<svg xmlns="http://www.w3.org/2000/svg" viewBox="0 0 400 400"><defs><style>.cls-1{fill:#2a873e;}.cls-2{fill:#efe1c1;}</style></defs><title>Green May copia</title><g id="Capa_2" data-name="Capa 2"><circle class="cls-1" cx="213.24" cy="192.28" r="128.93"/><path class="cls-2" d="M198.19,235.62c6.23,4.93,10.55,17.74,12,35.31-7.76-15.79-18.61-18.26-26.48-17.47-.84.06-2.42.55-2.37,2a1.68,1.68,0,0,0,.55,1.21,3.26,3.26,0,0,0,2.19.59,20.14,20.14,0,0,1,2.17-.12c18.89,0,24.36,26,24.42,26.23l.14.36h0a1.77,1.77,0,0,0,1.75,1.24,1.73,1.73,0,0,0,1.34-.54,2.45,2.45,0,0,0,.53-1.71c0-9.17-1-39.88-13.87-50.07-43-34-24.47-64-6.6-93.08,6.59-10.71,12.82-20.83,15.84-30.9h0l.11-.39c.93-3.58,2.34-4.88,3-4.88s1.88,1.15,2.8,3.64h0l.1.37c2.87,10.49,9.37,21,16.25,32.21,1.77,2.89,3.66,6,5.51,9.09-.78,1.26-1.56,2.54-2.32,3.84-3.19,5.67-7.45,13.64-13,24.35-3.82,7.32-7.61,14.49-11.26,21.3-3.09,5.77-5.71,10.45-7.81,13.95.75-3.22,1.8-7.29,3.16-12.16,1.69-6,3.41-12.05,5.11-17.89,2.31-7.89,4.13-14.29,5.4-19s1.94-7.82,1.94-9c0-.4,0-.92-.06-1.57a5.45,5.45,0,0,0-.53-2,2.47,2.47,0,0,0-1.64-1.35c-1.49-.5-3.3.64-5.53,3.46a101.38,101.38,0,0,0-7.49,11.64c-4.18,7.65-12.79,24.09-18.52,37.21l-.5,1.14c-.61,1.56-.11,3.21,1.12,3.69,1.53.61,2.43-.63,3.62-3.32l.44-1c.3-.7.6-1.43.92-2.2,2.2-5.26,4.72-11.05,7.49-17.2s5.56-11.7,8.32-16.58c2.08-3.51,3.79-6.25,5.1-8.16a41.29,41.29,0,0,1,3-4c.38-.43.66-.72.86-.92,0,.27,0,.64,0,1.19,0,1-.74,4.19-2.21,9.48s-3.07,11-5,17.63c-2.66,9-5,17.2-6.88,24.48-1,3.7-1.7,6.6-2.09,8.59-.71,3-.5,4.84.65,5.47a3.63,3.63,0,0,0,.48.18,1.51,1.51,0,0,0,1,0,3.25,3.25,0,0,0,1.12-.7c1.47-1.61,4.13-5.92,8.14-13.2,3.9-7.1,8.82-16.34,14.63-27.46,5.46-10.49,9.84-18.66,13-24.26a96,96,0,0,1,9.25-13.62,32.1,32.1,0,0,1,3.84-4,11.8,11.8,0,0,1,1.29-.91c0,.13,0,.3,0,.55,0,1.86-1.06,5.92-3.16,12.08s-4.48,12.9-7.16,20.24c-4.86,13.08-8.7,24.42-11.4,33.74a214.55,214.55,0,0,0-4.69,22.16c-1.08,8.05-1,8.39-1,8.5a1.75,1.75,0,0,0,.46,1.24,1.5,1.5,0,0,0,.89.49l.91,1.15.3-.23C263.93,207.42,258,181,248.63,161.14c1.7-4.81,3.12-8.89,4.32-12.46,2.09-6.15,3.1-10.22,3.1-12.42a4.69,4.69,0,0,0-.71-2.93,2.62,2.62,0,0,0-1.52-1,3.16,3.16,0,0,0-1.79.06,8.53,8.53,0,0,0-2.76,1.6,30.9,30.9,0,0,0-4.12,4.22c-1.65,2-3.4,4.35-5.22,7-1.58-2.64-3.12-5.18-4.59-7.56-6.3-10.24-12.27-19.93-15.24-29.29h0l-.09-.36c-1.35-5.32-3.92-8.37-7.07-8.38-2.69,0-5,2.33-6.35,6.41h0l-.1.36c-2.7,10-9,20.29-15.76,31.21C172.85,166.61,152.6,199.52,198.19,235.62Zm30.8-5.86c.16-1.24.36-2.8.62-4.71a198.45,198.45,0,0,1,4.63-21.87c2.65-9.16,6.45-20.4,11.31-33.42l1.23-3.43C254,183.13,257.93,205.32,229,229.76Z"/></g></svg>