<svg xmlns="http://www.w3.org/2000/svg" viewBox="0 0 320 320"><defs><style>.cls-1{fill:#efe1c1;}.cls-2{fill:#eb5e74;}.cls-3{fill:#2a873e;}</style></defs><title>Green May copia</title><g id="Capa_2" data-name="Capa 2"><circle class="cls-1" cx="160.89" cy="160.58" r="160"/><path class="cls-2" d="M95.14,141.68q3.56-9.84,6.08-17.33t2.53-10.12a3.65,3.65,0,0,0-.51-2.21,1.86,1.86,0,0,0-1.1-.75,2.31,2.31,0,0,0-1.29,0,7,7,0,0,0-2.16,1.27A24.75,24.75,0,0,0,95.36,116a88.48,88.48,0,0,0-8.08,11.79q-3.93,7-10.71,20-4.63,8.88-9.26,17.53t-7.43,13.1q.91-4.35,3-11.87t4.2-14.72q2.85-9.75,4.44-15.64a41.61,41.61,0,0,0,1.59-7.35c0-.32,0-.74-.05-1.26a4,4,0,0,0-.41-1.51,1.68,1.68,0,0,0-1.15-.94q-1.62-.54-4.2,2.74a80.5,80.5,0,0,0-6.14,9.53C57.8,143.59,50.67,157.21,46,168l-.41.93a2,2,0,0,0,.74,2.63c.85.33,1.45,0,2.57-2.56l.36-.86c.25-.58.5-1.18.76-1.81q2.74-6.57,6.17-14.16T63,138.51q2.58-4.37,4.2-6.73a36.4,36.4,0,0,1,2.48-3.34,5.55,5.55,0,0,1,1.18-1.13,6.23,6.23,0,0,1,.11,1.56,49.67,49.67,0,0,1-1.83,7.89q-1.83,6.6-4.09,14.51-3.28,11.08-5.66,20.13c-.82,3-1.4,5.4-1.72,7q-.81,3.51.38,4.15a2.05,2.05,0,0,0,.35.13.93.93,0,0,0,.59,0,2.34,2.34,0,0,0,.78-.49q1.77-1.93,6.65-10.79t12-22.59q6.78-13,10.71-20a78.2,78.2,0,0,1,7.65-11.25,25.32,25.32,0,0,1,3.2-3.34,4,4,0,0,1,1.48-.91,1.79,1.79,0,0,1,.11.86q0,2.37-2.61,10t-5.9,16.66q-6,16.2-9.36,27.73a170.54,170.54,0,0,0-3.85,18.19q-.88,6.57-.84,7a1.12,1.12,0,0,0,.3.8,1,1,0,0,0,.73.33h.05a1.11,1.11,0,0,0,.75-.27.92.92,0,0,0,.33-.76c0-.1.23-2.33.8-6.67a164.85,164.85,0,0,1,3.83-18Q89.12,157.84,95.14,141.68Z"/><path class="cls-2" d="M143,157.07a1.28,1.28,0,0,0,.46-.72,1,1,0,0,0-.19-.78,1,1,0,0,0-.7-.46,1,1,0,0,0-.8.19c-.11,0-1,.7-2.78,2s-4,3.08-6.81,5.31q1.83-4.16,2.94-6.81c.73-1.78,1.17-2.81,1.32-3.1a1.39,1.39,0,0,0,0-.81,1.12,1.12,0,0,0-.51-.59,1.28,1.28,0,0,0-.84,0,1.13,1.13,0,0,0-.62.52c-.68,1.32-1.72,3.07-3.12,5.22a45.83,45.83,0,0,1-4.68,6,12,12,0,0,1-5.06,3.55c-.47.11-.76.09-.87,0s-.07-.06-.1-.19a3.13,3.13,0,0,1-.08-.62,5.61,5.61,0,0,1,.1-1.18c.09-.51.25-1.14.46-1.89s.54-1.67,1-2.74q1-2.33,1.8-4c.56-1.11.86-1.7.89-1.77a1,1,0,0,0,.08-.84,1.06,1.06,0,0,0-.56-.62.93.93,0,0,0-.78-.08,1.36,1.36,0,0,0-.68.51c0,.11-.34.73-.91,1.86l0,.07a1,1,0,0,0-.24.23,34.8,34.8,0,0,1-8.16,7.61c-2.49,1.53-4.28,2-5.35,1.38-.76-.4-1.09-1.58-1-3.56s.94-4.91,2.56-8.83a1.08,1.08,0,0,0,0-.75,1,1,0,0,0-.48-.59,1.13,1.13,0,0,0-.78-.14.91.91,0,0,0-.62.46,5.91,5.91,0,0,0-.7.92c-.43.61-1,1.38-1.72,2.31a6.07,6.07,0,0,0-3.34-2.07,5.53,5.53,0,0,0-2.85.24,13.75,13.75,0,0,0-6.33,5.84A17.28,17.28,0,0,0,90,165.85a3.67,3.67,0,0,0,.48,2.12,2.3,2.3,0,0,0,.92.84,2.7,2.7,0,0,0,1,.16q2.48.06,7.37-4.85a85.15,85.15,0,0,0,5.71-6.56c-.61,2.65-.72,4.65-.32,6a4,4,0,0,0,4,3.18q4.53-.24,10.26-5.82a21,21,0,0,0-.84,3,7.6,7.6,0,0,0-.13,2.69,2.84,2.84,0,0,0,.56,1.34,2.17,2.17,0,0,0,1.08.78,3.46,3.46,0,0,0,2,0,9.93,9.93,0,0,0,4-2.13,26.87,26.87,0,0,0,3.74-3.85c-.43,1-.86,2-1.29,3A153.6,153.6,0,0,0,111,182.81q-8.44,10.27-6.56,16.2a3.64,3.64,0,0,0,2.9,2.37h.6q3.7,0,8.07-5.65a95.42,95.42,0,0,0,6.68-12.14q4-8.26,7.59-16.61,5.39-4.47,8.93-7.14C141.58,158.07,142.84,157.14,143,157.07Zm-44.79,5.49c-.9.9-1.67,1.63-2.31,2.18A16.67,16.67,0,0,1,94.24,166a8.61,8.61,0,0,1-1.11.62,2.07,2.07,0,0,1-.81.19c-.07,0-.12-.28-.16-.73a7.14,7.14,0,0,1,.38-2.18,20.49,20.49,0,0,1,3.23-6.16,8.92,8.92,0,0,1,4.63-3.58,3.46,3.46,0,0,1,3.44,1.45l.22.21A74.05,74.05,0,0,1,98.19,162.56Zm21.62,22a81.45,81.45,0,0,1-5.52,9.9,16.14,16.14,0,0,1-3.9,3.88,4.47,4.47,0,0,1-2.72.92,1.42,1.42,0,0,1-1.19-1q-.69-1.72.7-5.38a34,34,0,0,1,5.49-8.67,134.39,134.39,0,0,1,13.79-13.83Q123.12,177.79,119.81,184.53Z"/><path class="cls-2" d="M197.65,152.06h4.68a1.08,1.08,0,0,0,0-2.16l-8.31,0q-5.64,0-10.45.11a45.85,45.85,0,0,0-5.79.29,1.14,1.14,0,0,0-.67.49,1,1,0,0,0-.13.81,1,1,0,0,0,.4.59,1.05,1.05,0,0,0,.62.21.54.54,0,0,0,.27-.05c.54-.07,2.16-.13,4.87-.19s5.86-.1,9.45-.13h2.26q-2.53,3.06-6.3,7.16-4.91,5.33-10.55,10.58a78.48,78.48,0,0,1-10.85,8.58q-5.19,3.35-8.75,3-6.08-.92-6.35-9.79A48.84,48.84,0,0,1,155,155.64a92.32,92.32,0,0,1,8.48-18.12q12.56-20.07,26.06-23.31,3.28-.58,5,.54a5.66,5.66,0,0,1,2.29,2.75q1.56,3.77,0,8.91a16.89,16.89,0,0,1-6.3,8.69,1.11,1.11,0,0,0-.46.7,1,1,0,0,0,.19.81,1.06,1.06,0,0,0,.7.45,1,1,0,0,0,.81-.18,19.1,19.1,0,0,0,7.16-9.94,15.28,15.28,0,0,0-.11-10.31q-2.75-5.86-9.69-4.52-14.43,3.45-27.46,24.28a94.18,94.18,0,0,0-8.72,18.68,50.6,50.6,0,0,0-3,16.53q.42,10.56,8.18,11.9,7.92,1.13,24.76-15.35c1.91-1.83,3.68-3.64,5.33-5.43a81.34,81.34,0,0,0-7.43,17.66,64.43,64.43,0,0,0-1.85,8.77,13.63,13.63,0,0,0,0,4.5,3.42,3.42,0,0,0,.94,1.85,2.29,2.29,0,0,0,1.4.54,1.44,1.44,0,0,0,.59-.11.92.92,0,0,0,.59-.56,1.34,1.34,0,0,0,.06-.84A1.13,1.13,0,0,0,182,194a1,1,0,0,0-.75-.08,5.47,5.47,0,0,1-.22-.67,8,8,0,0,1-.13-2,27.76,27.76,0,0,1,.46-3.9c.28-1.67.79-3.82,1.5-6.44a76.13,76.13,0,0,1,5.76-14.34A105.52,105.52,0,0,1,195,155.88Z"/><path class="cls-2" d="M287.23,155.46a.92.92,0,0,0-.75-.3,1.19,1.19,0,0,0-.76.35l-1,1.05c-.65.67-1.5,1.45-2.56,2.34a29.77,29.77,0,0,1-3.47,2.53A13.58,13.58,0,0,1,275,163.1a2.27,2.27,0,0,1-.94.11,1.74,1.74,0,0,1-.54-.16,1.16,1.16,0,0,1-.24-.16,5,5,0,0,1-1.24-3.34,27.12,27.12,0,0,1-.05-3.88c0-.36.05-.66.05-.91a2.15,2.15,0,0,0-1.24-2.26,2.12,2.12,0,0,0-1.18-.14,5.39,5.39,0,0,0-2,.81,18.91,18.91,0,0,0-3.18,2.56,28.09,28.09,0,0,0-3.55,4.2l1.34-3.1.06-.08a1.09,1.09,0,0,0,.18-.47l2.29-5.29a1,1,0,0,0-.54-1.4,1.08,1.08,0,0,0-.83,0,1,1,0,0,0-.57.54l-2.39,5.49q-7.44,10.55-14.62,11c-2.08.15-3.3-.7-3.66-2.53a10.34,10.34,0,0,1,1.35-6.35,12,12,0,0,0,3,.75,4.88,4.88,0,0,0,1.91-.16,4.19,4.19,0,0,0,2.58-5.06,2.71,2.71,0,0,0-1.34-1.59,3.37,3.37,0,0,0-2.64-.08,9.47,9.47,0,0,0-4.93,4.27c-4.91,6.87-9.72,10.47-14.45,10.75-2.08.15-3.3-.7-3.66-2.53a10.4,10.4,0,0,1,1.34-6.35,11.6,11.6,0,0,0,1.22.4,10.43,10.43,0,0,0,1.83.35,4.88,4.88,0,0,0,1.91-.16,4.19,4.19,0,0,0,2.58-5.06,2.71,2.71,0,0,0-1.34-1.59,3.37,3.37,0,0,0-2.64-.08,9.29,9.29,0,0,0-4.73,4,32.45,32.45,0,0,1-3.62,1.32,2.94,2.94,0,0,1-2.88-.65,17,17,0,0,1-2.61-3.44l-.05-.11a1.57,1.57,0,0,0-1.46-.76,2.06,2.06,0,0,0-1.26.43,10.59,10.59,0,0,0-1.86,1.86c-.75.92-1.7,2.25-2.85,4l2.64-6.83a.13.13,0,0,1,.05-.11v-.11a.81.81,0,0,0-.11-.59,1,1,0,0,0-.59-.54,1,1,0,0,0-.81,0,1.54,1.54,0,0,0-.54.48l-.16.33-7.59,20a1,1,0,0,0,0,.78,1,1,0,0,0,.59.57,1,1,0,0,0,.44.11,1.12,1.12,0,0,0,1-.59c0-.11.52-1,1.43-2.75s2-3.71,3.31-6a80,80,0,0,1,4.36-6.73,9.8,9.8,0,0,1,1.89-2.09,17.53,17.53,0,0,0,2.55,3.41,5.07,5.07,0,0,0,3.53,1.59,5.49,5.49,0,0,0,1.62-.27l1.55-.47a11.26,11.26,0,0,0-.8,6c.61,2.83,2.4,4.27,5.38,4.3h.54a16.47,16.47,0,0,0,9.64-4.33c.9-.83,1.74-1.67,2.53-2.51a9.79,9.79,0,0,0,0,2.54c.61,2.83,2.41,4.27,5.39,4.3H246a16.47,16.47,0,0,0,9.64-4.33c.59-.54,1.14-1.08,1.69-1.63l-3.52,8.06a1.14,1.14,0,0,0,0,.81,1.09,1.09,0,0,0,.51.59,1.22,1.22,0,0,0,.49.11,1.09,1.09,0,0,0,.91-.54c.08-.07.46-.69,1.16-1.85s1.59-2.58,2.67-4.23,2.18-3.26,3.33-4.82a29.4,29.4,0,0,1,3.07-3.63,18.42,18.42,0,0,1,2.78-2.21,3.91,3.91,0,0,1,1.15-.54.3.3,0,0,1,.06.22,7,7,0,0,1-.06.81v.05a31.79,31.79,0,0,0,.16,4.74,6.3,6.3,0,0,0,1.94,4.2,3.51,3.51,0,0,0,1.37.67,4.78,4.78,0,0,0,2.19,0,17.87,17.87,0,0,0,5.43-2.69,41.69,41.69,0,0,0,4.42-3.58,22.63,22.63,0,0,0,1.94-2,.93.93,0,0,0,.29-.75A1.1,1.1,0,0,0,287.23,155.46Zm-39.51-1.83a1.7,1.7,0,0,1,.8-.11.65.65,0,0,1,.38.19.42.42,0,0,1,.11.24,1.59,1.59,0,0,1-.11,1.26,1.93,1.93,0,0,1-1.13,1,3.89,3.89,0,0,1-1.4,0,8.82,8.82,0,0,1-1.61-.41A6.59,6.59,0,0,1,247.72,153.63Zm-18.15,0a1.76,1.76,0,0,1,.81-.11.65.65,0,0,1,.38.19.42.42,0,0,1,.11.24,1.63,1.63,0,0,1-.11,1.26,2,2,0,0,1-1.13,1,3.89,3.89,0,0,1-1.4,0,8.93,8.93,0,0,1-1.62-.41A6.64,6.64,0,0,1,229.57,153.63Z"/><path class="cls-3" d="M75,217.16a10.91,10.91,0,0,0-4.45.92,11.55,11.55,0,0,0-3.62,2.44,11.39,11.39,0,0,0-2.46,3.67,11.21,11.21,0,0,0-.9,4.46A11.42,11.42,0,0,0,75,240.08a10.71,10.71,0,0,0,3.08-.43,12.85,12.85,0,0,0,2.74-1.17l-.51-.74a10.87,10.87,0,0,1-2.58,1.09,10.12,10.12,0,0,1-2.8.39,10,10,0,0,1-4.08-.84,10.33,10.33,0,0,1-3.31-2.27,11,11,0,0,1-2.24-3.34,10,10,0,0,1-.83-4.08,10.25,10.25,0,0,1,.83-4.12,11.12,11.12,0,0,1,2.27-3.41,10.49,10.49,0,0,1,3.33-2.28A10,10,0,0,1,75,218a10.12,10.12,0,0,1,2.57.33,10.59,10.59,0,0,1,2.42,1v3h.86v-3.59a12.1,12.1,0,0,0-2.77-1.18A11.07,11.07,0,0,0,75,217.16Z"/><path class="cls-3" d="M75,240.55A11.9,11.9,0,0,1,64,224a12,12,0,0,1,2.56-3.82,12.29,12.29,0,0,1,3.76-2.54,11.48,11.48,0,0,1,4.63-1,11.65,11.65,0,0,1,3.22.43,12.62,12.62,0,0,1,2.88,1.23l.23.14v4.32h-1.8v-3.2a10.19,10.19,0,0,0-2.07-.8,9.63,9.63,0,0,0-6.36.49,10.33,10.33,0,0,0-3.19,2.18,10.85,10.85,0,0,0-2.17,3.27,9.79,9.79,0,0,0-.8,3.93,9.57,9.57,0,0,0,.8,3.89,10.69,10.69,0,0,0,2.14,3.2,9.89,9.89,0,0,0,9.74,2.6,10.7,10.7,0,0,0,2.47-1l.37-.22,1,1.51-.44.26a13.79,13.79,0,0,1-2.84,1.21A11.36,11.36,0,0,1,75,240.55Z"/><path class="cls-3" d="M104.25,220.52a12,12,0,0,0-3.67-2.44,11.25,11.25,0,0,0-8.91,0,11.41,11.41,0,0,0-6.08,6.11,11.21,11.21,0,0,0-.9,4.46,11.06,11.06,0,0,0,.9,4.45,11.38,11.38,0,0,0,2.46,3.62,11.41,11.41,0,0,0,12.53,2.46,11.39,11.39,0,0,0,3.67-2.46,11.87,11.87,0,0,0,2.45-3.62,11.07,11.07,0,0,0,.91-4.45,11.22,11.22,0,0,0-.91-4.46A12.22,12.22,0,0,0,104.25,220.52Zm1.62,12.25a10.62,10.62,0,0,1-2.29,3.34,11,11,0,0,1-3.41,2.27,10.21,10.21,0,0,1-4.11.84,10,10,0,0,1-4.09-.84,10.33,10.33,0,0,1-3.31-2.27,11.13,11.13,0,0,1-2.24-3.34,10.25,10.25,0,0,1-.83-4.12,10.37,10.37,0,0,1,.83-4.11,10.8,10.8,0,0,1,2.27-3.38A10.49,10.49,0,0,1,92,218.88a10.31,10.31,0,0,1,8.2,0,10.86,10.86,0,0,1,3.36,2.28,11,11,0,0,1,2.29,3.38,10.5,10.5,0,0,1,0,8.23Z"/><path class="cls-3" d="M96.12,240.55a11.74,11.74,0,0,1-8.4-3.5,11.83,11.83,0,0,1-2.56-3.76,12,12,0,0,1,0-9.28,11.9,11.9,0,0,1,6.32-6.36,11.85,11.85,0,0,1,9.29,0,12.58,12.58,0,0,1,3.81,2.54h0a12.62,12.62,0,0,1,2.55,3.8,11.62,11.62,0,0,1,1,4.65,11.5,11.5,0,0,1-1,4.64,12.31,12.31,0,0,1-2.55,3.76,11.94,11.94,0,0,1-3.81,2.56A11.74,11.74,0,0,1,96.12,240.55Zm0-22.05a9.57,9.57,0,0,0-3.91.81A10.17,10.17,0,0,0,89,221.49a10.33,10.33,0,0,0-2.18,3.24,10,10,0,0,0-.79,3.92,9.65,9.65,0,0,0,.79,3.93,10.53,10.53,0,0,0,2.15,3.2A9.79,9.79,0,0,0,92.16,238a10,10,0,0,0,7.82,0,10.73,10.73,0,0,0,3.27-2.17,10.28,10.28,0,0,0,2.19-3.2,10,10,0,0,0,0-7.85,10.39,10.39,0,0,0-2.2-3.23,10.22,10.22,0,0,0-3.21-2.19A9.57,9.57,0,0,0,96.12,218.5Z"/><polygon class="cls-3" points="126.49 238.96 114.68 238.96 114.68 218.28 117.34 218.28 117.34 217.42 111.45 217.42 111.45 218.28 113.79 218.28 113.79 238.96 111.45 238.96 111.45 239.82 127.36 239.82 127.36 234.9 126.49 234.9 126.49 238.96"/><polygon class="cls-3" points="127.82 240.29 110.98 240.29 110.98 238.49 113.32 238.49 113.32 218.75 110.98 218.75 110.98 216.95 117.81 216.95 117.81 218.75 115.15 218.75 115.15 238.49 126.02 238.49 126.02 234.43 127.82 234.43 127.82 240.29"/><polygon class="cls-3" points="146.24 238.96 134.43 238.96 134.43 218.28 137.09 218.28 137.09 217.42 131.2 217.42 131.2 218.28 133.53 218.28 133.53 238.96 131.2 238.96 131.2 239.82 147.1 239.82 147.1 234.9 146.24 234.9 146.24 238.96"/><polygon class="cls-3" points="147.57 240.29 130.73 240.29 130.73 238.49 133.06 238.49 133.06 218.75 130.73 218.75 130.73 216.95 137.56 216.95 137.56 218.75 134.9 218.75 134.9 238.49 145.77 238.49 145.77 234.43 147.57 234.43 147.57 240.29"/><polygon class="cls-3" points="166.11 238.96 154.3 238.96 154.3 228.97 165.28 228.97 165.28 228.11 154.3 228.11 154.3 218.28 165.66 218.28 165.66 222.35 166.53 222.35 166.53 217.42 150.94 217.42 150.94 218.28 153.41 218.28 153.41 238.96 150.94 238.96 150.94 239.82 166.98 239.82 166.98 234.9 166.11 234.9 166.11 238.96"/><polygon class="cls-3" points="167.44 240.29 150.47 240.29 150.47 238.49 152.94 238.49 152.94 218.75 150.47 218.75 150.47 216.95 167 216.95 167 222.82 165.2 222.82 165.2 218.75 154.77 218.75 154.77 227.64 165.75 227.64 165.75 229.44 154.77 229.44 154.77 238.49 165.64 238.49 165.64 234.43 167.44 234.43 167.44 240.29"/><path class="cls-3" d="M182.24,217.16a10.94,10.94,0,0,0-4.45.92,11.62,11.62,0,0,0-3.61,2.44,11.39,11.39,0,0,0-2.46,3.67,11.21,11.21,0,0,0-.9,4.46,11.41,11.41,0,0,0,11.42,11.43,10.73,10.73,0,0,0,3.09-.43,12.85,12.85,0,0,0,2.74-1.17l-.51-.74a10.87,10.87,0,0,1-2.58,1.09,10.12,10.12,0,0,1-2.8.39,10,10,0,0,1-4.08-.84,10.33,10.33,0,0,1-3.31-2.27,11,11,0,0,1-2.24-3.34,10,10,0,0,1-.83-4.08,10.25,10.25,0,0,1,.83-4.12,11.12,11.12,0,0,1,2.27-3.41,10.49,10.49,0,0,1,3.33-2.28,9.93,9.93,0,0,1,4.09-.85,10.14,10.14,0,0,1,2.58.33,10.78,10.78,0,0,1,2.42,1v3h.86v-3.59a12.1,12.1,0,0,0-2.77-1.18A11.09,11.09,0,0,0,182.24,217.16Z"/><path class="cls-3" d="M182.24,240.55a11.89,11.89,0,0,1-11.89-11.9,11.87,11.87,0,0,1,.93-4.64,12,12,0,0,1,6.33-6.36,11.48,11.48,0,0,1,4.63-1,11.65,11.65,0,0,1,3.22.43,12.81,12.81,0,0,1,2.88,1.23l.23.14v4.32h-1.8v-3.2a10.42,10.42,0,0,0-2.07-.8,9.62,9.62,0,0,0-6.36.49,10.21,10.21,0,0,0-3.19,2.18,10.85,10.85,0,0,0-2.17,3.27,9.79,9.79,0,0,0-.8,3.93,9.57,9.57,0,0,0,.8,3.89,10.5,10.5,0,0,0,2.14,3.2,9.73,9.73,0,0,0,3.17,2.17,9.89,9.89,0,0,0,6.56.43,10.35,10.35,0,0,0,2.47-1l.38-.22,1.05,1.51-.45.26a13.71,13.71,0,0,1-2.83,1.21A11.36,11.36,0,0,1,182.24,240.55Z"/><polygon class="cls-3" points="191.94 222.35 192.8 222.35 192.8 218.28 200.33 218.28 200.33 238.96 197.76 238.96 197.76 239.82 203.78 239.82 203.78 238.96 201.22 238.96 201.22 218.28 208.78 218.28 208.78 222.35 209.64 222.35 209.64 217.42 191.94 217.42 191.94 222.35"/><polygon class="cls-3" points="204.25 240.29 197.3 240.29 197.3 238.49 199.86 238.49 199.86 218.75 193.27 218.75 193.27 222.82 191.47 222.82 191.47 216.95 210.11 216.95 210.11 222.82 208.31 222.82 208.31 218.75 201.69 218.75 201.69 238.49 204.25 238.49 204.25 240.29"/><polygon class="cls-3" points="213.48 218.28 215.94 218.28 215.94 238.96 213.48 238.96 213.48 239.82 219.5 239.82 219.5 238.96 216.84 238.96 216.84 218.28 219.5 218.28 219.5 217.42 213.48 217.42 213.48 218.28"/><polygon class="cls-3" points="219.97 240.29 213.01 240.29 213.01 238.49 215.48 238.49 215.48 218.75 213.01 218.75 213.01 216.95 219.97 216.95 219.97 218.75 217.31 218.75 217.31 238.49 219.97 238.49 219.97 240.29"/><path class="cls-3" d="M241.87,218.28h2.33q-2.07,5-4.16,9.88L235.85,238l-.29.83-.28-.83q-2.09-5-4.17-9.86T227,218.28h2.4v-.86h-6v.86H226q2.4,5.7,4.8,11.3t4.77,11.27q2.4-5.67,4.79-11.27t4.78-11.3h2.76v-.86h-6Z"/><path class="cls-3" d="M235.56,242.05l-.43-1q-2.37-5.67-4.77-11.26t-4.68-11h-2.81V217h6.95v1.8h-2.16q1.93,4.63,3.88,9.21t4,9.52l4.05-9.51q1.95-4.56,3.89-9.22h-2.1V217h6.95v1.8h-2.91q-2.34,5.55-4.66,11T236,241Z"/><polygon class="cls-3" points="266.89 238.96 255.09 238.96 255.09 228.97 266.06 228.97 266.06 228.11 255.09 228.11 255.09 218.28 266.45 218.28 266.45 222.35 267.31 222.35 267.31 217.42 251.72 217.42 251.72 218.28 254.19 218.28 254.19 238.96 251.72 238.96 251.72 239.82 267.76 239.82 267.76 234.9 266.89 234.9 266.89 238.96"/><polygon class="cls-3" points="268.23 240.29 251.26 240.29 251.26 238.49 253.72 238.49 253.72 218.75 251.26 218.75 251.26 216.95 267.78 216.95 267.78 222.82 265.98 222.82 265.98 218.75 255.55 218.75 255.55 227.64 266.53 227.64 266.53 229.44 255.55 229.44 255.55 238.49 266.43 238.49 266.43 234.43 268.23 234.43 268.23 240.29"/><path class="cls-3" d="M159.79,100.06c2.76,2.19,4.68,7.88,5.3,15.68-3.44-7-8.25-8.11-11.75-7.76-.37,0-1.07.25-1.05.89a.76.76,0,0,0,.24.54,1.45,1.45,0,0,0,1,.25c.33,0,.65,0,1,0,8.38,0,10.81,11.52,10.84,11.64l.06.16h0a.8.8,0,0,0,.78.55.78.78,0,0,0,.6-.24A1.11,1.11,0,0,0,167,121c0-4.07-.44-17.71-6.16-22.23C141.77,83.65,150,70.31,157.91,57.42c2.92-4.75,5.68-9.25,7-13.72h0l.05-.18c.41-1.59,1-2.16,1.35-2.16s.84.5,1.25,1.61h0l0,.16c1.27,4.66,4.16,9.34,7.21,14.3.79,1.28,1.63,2.65,2.45,4-.35.55-.69,1.13-1,1.7-1.41,2.52-3.31,6-5.78,10.81-1.7,3.25-3.38,6.43-5,9.46-1.37,2.56-2.54,4.64-3.47,6.19.33-1.43.8-3.24,1.41-5.4.74-2.68,1.51-5.35,2.26-7.94,1-3.51,1.83-6.35,2.4-8.45a22,22,0,0,0,.86-4q0-.26,0-.69a2.49,2.49,0,0,0-.23-.88,1.09,1.09,0,0,0-.73-.59c-.66-.23-1.46.28-2.45,1.53a42.85,42.85,0,0,0-3.33,5.17c-1.86,3.4-5.68,10.69-8.22,16.52l-.22.5a1.23,1.23,0,0,0,.49,1.64c.68.27,1.08-.28,1.61-1.47l.2-.46c.13-.31.26-.64.41-1,1-2.34,2.09-4.91,3.32-7.64s2.47-5.19,3.7-7.36c.92-1.55,1.68-2.77,2.26-3.62A18.15,18.15,0,0,1,167,63.74c.17-.2.29-.32.38-.41,0,.12,0,.28,0,.52a27.13,27.13,0,0,1-1,4.21c-.65,2.32-1.37,4.88-2.21,7.83-1.18,4-2.21,7.64-3.05,10.87-.45,1.64-.76,2.93-.94,3.81-.31,1.36-.21,2.15.3,2.43l.21.08a.64.64,0,0,0,.43,0,1.39,1.39,0,0,0,.49-.31,39.17,39.17,0,0,0,3.61-5.86c1.74-3.15,3.92-7.25,6.5-12.19,2.42-4.66,4.37-8.28,5.78-10.77a42.22,42.22,0,0,1,4.1-6,13.47,13.47,0,0,1,1.71-1.77,4.32,4.32,0,0,1,.57-.41c0,.06,0,.13,0,.24a22.7,22.7,0,0,1-1.4,5.37c-.92,2.7-2,5.73-3.18,9-2.16,5.81-3.86,10.84-5.06,15a94.51,94.51,0,0,0-2.08,9.84,34.89,34.89,0,0,0-.46,3.77.75.75,0,0,0,.21.55.69.69,0,0,0,.4.22l.4.51.13-.1c16-12.52,13.39-24.25,9.25-33.07.75-2.14,1.38-4,1.92-5.53A21.51,21.51,0,0,0,185.47,56a2.13,2.13,0,0,0-.31-1.3,1.19,1.19,0,0,0-.68-.46,1.35,1.35,0,0,0-.79,0,3.8,3.8,0,0,0-1.23.71,13.11,13.11,0,0,0-1.82,1.87,36.74,36.74,0,0,0-2.32,3.12c-.7-1.17-1.39-2.3-2-3.35-2.8-4.55-5.45-8.85-6.77-13h0l0-.16c-.6-2.36-1.74-3.72-3.14-3.72-1.19,0-2.21,1-2.82,2.85h0l0,.16c-1.2,4.43-4,9-7,13.85C148.54,69.43,139.55,84,159.79,100.06Zm13.67-2.6.27-2.09a90.82,90.82,0,0,1,2.06-9.71c1.18-4.06,2.87-9,5-14.83l.55-1.53C184.54,76.76,186.31,86.61,173.46,97.46Z"/></g></svg>